# xmcd
#
# Track frame offsets: 
#        183
#        11440
#        25523
#        48493
#        59348
#        71113
#        86258
#        100835
#        109070
#        120270
#        148548
#        163050
#        174653
#        185260
#        190463
#        201413
#        215860
#        224308
#
# Disc length: 3154 seconds
#
# Revision: 2
# Processed by: cddbd v1.5.2PL0 Copyright (c) Steve Scherf et al.
# Submitted via: ExactAudioCopyFreeDBPlugin 1.0
#
DISCID=040c5012
DTITLE=Fats Domino - Be My Guest
DYEAR=1900
DGENRE=Blues
TTITLE0=The Fat Man
TTITLE1=Blueberry Hill
TTITLE2=Domino Twist
TTITLE3=What A Price
TTITLE4=Let The Four Winds Blow
TTITLE5=Jambalaya (On The Bayou)
TTITLE6=Medley: I'm In Love Again - Honey Chile
TTITLE7=Red Sails In The Sunset
TTITLE8=Ain't That A Shame (Please Don't Leave Me)
TTITLE9=Medley: So Long - Natural Born Lover - C.C. Rider
TTITLE10=I'm In The Mood For Love
TTITLE11=I Want To Walk You Home
TTITLE12=I'm Gonna Be A Wheel Someday
TTITLE13=Whole Lotta Loving
TTITLE14=Blue Monday
TTITLE15=I'm In Love Again
TTITLE16=Be My Guest
TTITLE17=Goin' Home
EXTD=
EXTT0=
EXTT1=
EXTT2=
EXTT3=
EXTT4=
EXTT5=
EXTT6=
EXTT7=
EXTT8=
EXTT9=
EXTT10=
EXTT11=
EXTT12=
EXTT13=
EXTT14=
EXTT15=
EXTT16=
EXTT17=
PLAYORDER=
